<mxfile host="www.draw.io" modified="2020-01-31T17:02:05.794Z" agent="Mozilla/5.0 (Windows NT 10.0; Win64; x64) AppleWebKit/537.36 (KHTML, like Gecko) Chrome/79.0.3945.130 Safari/537.36 OPR/66.0.3515.44" etag="n69juk76z5Be1kRHUR3F" version="12.6.2" type="github">
  <diagram id="NmhKhQRA5OXtc5KIfB-L" name="Page-1">
    <mxGraphModel dx="998" dy="548" grid="1" gridSize="10" guides="1" tooltips="1" connect="1" arrows="1" fold="1" page="1" pageScale="1" pageWidth="827" pageHeight="1169" math="0" shadow="0">
      <root>
        <mxCell id="0"/>
        <mxCell id="1" parent="0"/>
        <mxCell id="iLHArTR-ORAOyo2F43qm-1" value="&lt;font style=&quot;font-size: 18px&quot; face=&quot;Verdana&quot;&gt;Team BlueJ Github Repo Structure&lt;/font&gt;" style="rounded=1;whiteSpace=wrap;html=1;" parent="1" vertex="1">
          <mxGeometry x="240" y="40" width="360" height="30" as="geometry"/>
        </mxCell>
        <mxCell id="iLHArTR-ORAOyo2F43qm-2" value="&lt;font style=&quot;font-size: 14px&quot; face=&quot;Verdana&quot;&gt;Master&lt;/font&gt;" style="rounded=1;whiteSpace=wrap;html=1;fillColor=#d5e8d4;strokeColor=#82b366;fontStyle=1" parent="1" vertex="1">
          <mxGeometry x="372.25" y="90" width="95.5" height="30" as="geometry"/>
        </mxCell>
        <mxCell id="iLHArTR-ORAOyo2F43qm-3" value="&lt;font face=&quot;Verdana&quot;&gt;&lt;b&gt;&lt;font style=&quot;font-size: 14px&quot;&gt;Master-Dev&lt;/font&gt;&lt;/b&gt;&lt;/font&gt;" style="rounded=1;whiteSpace=wrap;html=1;fillColor=#dae8fc;strokeColor=#6c8ebf;fontStyle=1" parent="1" vertex="1">
          <mxGeometry x="360" y="160" width="120" height="30" as="geometry"/>
        </mxCell>
        <mxCell id="iLHArTR-ORAOyo2F43qm-4" value="&lt;font face=&quot;Verdana&quot;&gt;&lt;b&gt;&lt;font style=&quot;font-size: 14px&quot;&gt;Frontend&lt;/font&gt;&lt;/b&gt;&lt;/font&gt;" style="rounded=1;whiteSpace=wrap;html=1;fillColor=#dae8fc;strokeColor=#6c8ebf;fontStyle=1" parent="1" vertex="1">
          <mxGeometry x="180" y="270" width="140" height="30" as="geometry"/>
        </mxCell>
        <mxCell id="iLHArTR-ORAOyo2F43qm-5" value="&lt;font face=&quot;Verdana&quot;&gt;&lt;b&gt;&lt;font style=&quot;font-size: 14px&quot;&gt;Backend&lt;/font&gt;&lt;/b&gt;&lt;/font&gt;" style="rounded=1;whiteSpace=wrap;html=1;fillColor=#dae8fc;strokeColor=#6c8ebf;fontStyle=1" parent="1" vertex="1">
          <mxGeometry x="520" y="270" width="140" height="30" as="geometry"/>
        </mxCell>
        <mxCell id="iLHArTR-ORAOyo2F43qm-6" value="&lt;font face=&quot;Verdana&quot;&gt;&lt;span style=&quot;font-size: 14px&quot;&gt;Front-Dev&lt;/span&gt;&lt;/font&gt;" style="rounded=1;whiteSpace=wrap;html=1;fontStyle=1;fillColor=#f5f5f5;strokeColor=#666666;fontColor=#333333;" parent="1" vertex="1">
          <mxGeometry x="190" y="360" width="120" height="30" as="geometry"/>
        </mxCell>
        <mxCell id="iLHArTR-ORAOyo2F43qm-7" value="&lt;font face=&quot;Verdana&quot;&gt;&lt;b&gt;&lt;font style=&quot;font-size: 14px&quot;&gt;Front-Dev&lt;/font&gt;&lt;/b&gt;&lt;/font&gt;" style="rounded=1;whiteSpace=wrap;html=1;fontStyle=1;fillColor=#f5f5f5;strokeColor=#666666;fontColor=#333333;" parent="1" vertex="1">
          <mxGeometry x="530" y="360" width="120" height="30" as="geometry"/>
        </mxCell>
        <mxCell id="iLHArTR-ORAOyo2F43qm-8" value="&lt;div&gt;Feature 2&lt;/div&gt;" style="rounded=1;whiteSpace=wrap;html=1;fillColor=#e1d5e7;strokeColor=#9673a6;fontStyle=1" parent="1" vertex="1">
          <mxGeometry x="202.25" y="480" width="95.5" height="30" as="geometry"/>
        </mxCell>
        <mxCell id="iLHArTR-ORAOyo2F43qm-9" value="&lt;div&gt;Feature 5&lt;/div&gt;" style="rounded=1;whiteSpace=wrap;html=1;fillColor=#e1d5e7;strokeColor=#9673a6;fontStyle=1" parent="1" vertex="1">
          <mxGeometry x="542.25" y="480" width="95.5" height="30" as="geometry"/>
        </mxCell>
        <mxCell id="iLHArTR-ORAOyo2F43qm-10" value="&lt;div&gt;Feature 3&lt;/div&gt;" style="rounded=1;whiteSpace=wrap;html=1;fillColor=#e1d5e7;strokeColor=#9673a6;fontStyle=1" parent="1" vertex="1">
          <mxGeometry x="310" y="480" width="95.5" height="30" as="geometry"/>
        </mxCell>
        <mxCell id="iLHArTR-ORAOyo2F43qm-11" value="&lt;div&gt;Feature 4&lt;/div&gt;" style="rounded=1;whiteSpace=wrap;html=1;fillColor=#e1d5e7;strokeColor=#9673a6;fontStyle=1" parent="1" vertex="1">
          <mxGeometry x="434.5" y="480" width="95.5" height="30" as="geometry"/>
        </mxCell>
        <mxCell id="iLHArTR-ORAOyo2F43qm-12" value="&lt;div&gt;Feature 1&lt;/div&gt;" style="rounded=1;whiteSpace=wrap;html=1;fillColor=#e1d5e7;strokeColor=#9673a6;fontStyle=1" parent="1" vertex="1">
          <mxGeometry x="94.5" y="480" width="95.5" height="30" as="geometry"/>
        </mxCell>
        <mxCell id="iLHArTR-ORAOyo2F43qm-13" value="&lt;div&gt;Feature 6&lt;/div&gt;" style="rounded=1;whiteSpace=wrap;html=1;fillColor=#e1d5e7;strokeColor=#9673a6;fontStyle=1" parent="1" vertex="1">
          <mxGeometry x="650" y="480" width="95.5" height="30" as="geometry"/>
        </mxCell>
        <mxCell id="iLHArTR-ORAOyo2F43qm-14" value="" style="endArrow=classic;html=1;exitX=0.5;exitY=0;exitDx=0;exitDy=0;strokeWidth=1;entryX=0.5;entryY=1;entryDx=0;entryDy=0;" parent="1" source="iLHArTR-ORAOyo2F43qm-8" target="iLHArTR-ORAOyo2F43qm-6" edge="1">
          <mxGeometry width="50" height="50" relative="1" as="geometry">
            <mxPoint x="240" y="502" as="sourcePoint"/>
            <mxPoint x="240" y="410" as="targetPoint"/>
          </mxGeometry>
        </mxCell>
        <mxCell id="iLHArTR-ORAOyo2F43qm-15" value="" style="endArrow=classic;html=1;exitX=0.5;exitY=0;exitDx=0;exitDy=0;strokeWidth=1;entryX=0.5;entryY=1;entryDx=0;entryDy=0;" parent="1" source="iLHArTR-ORAOyo2F43qm-9" target="iLHArTR-ORAOyo2F43qm-7" edge="1">
          <mxGeometry width="50" height="50" relative="1" as="geometry">
            <mxPoint x="580" y="502" as="sourcePoint"/>
            <mxPoint x="580" y="410" as="targetPoint"/>
          </mxGeometry>
        </mxCell>
        <mxCell id="iLHArTR-ORAOyo2F43qm-16" value="" style="endArrow=classic;html=1;exitX=0.5;exitY=0;exitDx=0;exitDy=0;strokeWidth=2;entryX=0.5;entryY=1;entryDx=0;entryDy=0;" parent="1" source="iLHArTR-ORAOyo2F43qm-6" target="iLHArTR-ORAOyo2F43qm-4" edge="1">
          <mxGeometry width="50" height="50" relative="1" as="geometry">
            <mxPoint x="392.25" y="540" as="sourcePoint"/>
            <mxPoint x="392.25" y="448" as="targetPoint"/>
          </mxGeometry>
        </mxCell>
        <mxCell id="iLHArTR-ORAOyo2F43qm-17" value="" style="endArrow=classic;html=1;exitX=0.5;exitY=0;exitDx=0;exitDy=0;strokeWidth=2;entryX=0.5;entryY=1;entryDx=0;entryDy=0;" parent="1" source="iLHArTR-ORAOyo2F43qm-7" target="iLHArTR-ORAOyo2F43qm-5" edge="1">
          <mxGeometry width="50" height="50" relative="1" as="geometry">
            <mxPoint x="402.25" y="550" as="sourcePoint"/>
            <mxPoint x="402.25" y="458" as="targetPoint"/>
          </mxGeometry>
        </mxCell>
        <mxCell id="iLHArTR-ORAOyo2F43qm-18" value="" style="endArrow=classic;html=1;exitX=0.5;exitY=0;exitDx=0;exitDy=0;strokeWidth=2;entryX=0.5;entryY=1;entryDx=0;entryDy=0;" parent="1" source="iLHArTR-ORAOyo2F43qm-4" target="iLHArTR-ORAOyo2F43qm-3" edge="1">
          <mxGeometry width="50" height="50" relative="1" as="geometry">
            <mxPoint x="412.25" y="560" as="sourcePoint"/>
            <mxPoint x="412.25" y="468" as="targetPoint"/>
          </mxGeometry>
        </mxCell>
        <mxCell id="iLHArTR-ORAOyo2F43qm-19" value="" style="endArrow=classic;html=1;exitX=0.5;exitY=0;exitDx=0;exitDy=0;strokeWidth=2;entryX=0.5;entryY=1;entryDx=0;entryDy=0;" parent="1" source="iLHArTR-ORAOyo2F43qm-5" target="iLHArTR-ORAOyo2F43qm-3" edge="1">
          <mxGeometry width="50" height="50" relative="1" as="geometry">
            <mxPoint x="422.25" y="570" as="sourcePoint"/>
            <mxPoint x="422.25" y="478" as="targetPoint"/>
          </mxGeometry>
        </mxCell>
        <mxCell id="iLHArTR-ORAOyo2F43qm-20" value="" style="endArrow=classic;html=1;exitX=0.5;exitY=0;exitDx=0;exitDy=0;strokeWidth=3;entryX=0.5;entryY=1;entryDx=0;entryDy=0;" parent="1" source="iLHArTR-ORAOyo2F43qm-3" target="iLHArTR-ORAOyo2F43qm-2" edge="1">
          <mxGeometry width="50" height="50" relative="1" as="geometry">
            <mxPoint x="405.5" y="352" as="sourcePoint"/>
            <mxPoint x="405.5" y="260" as="targetPoint"/>
          </mxGeometry>
        </mxCell>
        <mxCell id="iLHArTR-ORAOyo2F43qm-21" value="" style="endArrow=classic;html=1;exitX=0.5;exitY=0;exitDx=0;exitDy=0;strokeWidth=1;entryX=0.5;entryY=1;entryDx=0;entryDy=0;" parent="1" source="iLHArTR-ORAOyo2F43qm-10" target="iLHArTR-ORAOyo2F43qm-6" edge="1">
          <mxGeometry width="50" height="50" relative="1" as="geometry">
            <mxPoint x="442.25" y="590" as="sourcePoint"/>
            <mxPoint x="442.25" y="498" as="targetPoint"/>
          </mxGeometry>
        </mxCell>
        <mxCell id="iLHArTR-ORAOyo2F43qm-22" value="" style="endArrow=classic;html=1;exitX=0.5;exitY=0;exitDx=0;exitDy=0;strokeWidth=1;entryX=0.5;entryY=1;entryDx=0;entryDy=0;" parent="1" source="iLHArTR-ORAOyo2F43qm-11" target="iLHArTR-ORAOyo2F43qm-7" edge="1">
          <mxGeometry width="50" height="50" relative="1" as="geometry">
            <mxPoint x="452.25" y="600" as="sourcePoint"/>
            <mxPoint x="452.25" y="508" as="targetPoint"/>
          </mxGeometry>
        </mxCell>
        <mxCell id="iLHArTR-ORAOyo2F43qm-23" value="" style="endArrow=classic;html=1;exitX=0.5;exitY=0;exitDx=0;exitDy=0;strokeWidth=1;entryX=0.5;entryY=1;entryDx=0;entryDy=0;" parent="1" source="iLHArTR-ORAOyo2F43qm-13" target="iLHArTR-ORAOyo2F43qm-7" edge="1">
          <mxGeometry width="50" height="50" relative="1" as="geometry">
            <mxPoint x="462.25" y="610" as="sourcePoint"/>
            <mxPoint x="462.25" y="518" as="targetPoint"/>
          </mxGeometry>
        </mxCell>
        <mxCell id="iLHArTR-ORAOyo2F43qm-24" value="" style="endArrow=classic;html=1;exitX=0.5;exitY=0;exitDx=0;exitDy=0;strokeWidth=1;entryX=0.5;entryY=1;entryDx=0;entryDy=0;" parent="1" source="iLHArTR-ORAOyo2F43qm-12" target="iLHArTR-ORAOyo2F43qm-6" edge="1">
          <mxGeometry width="50" height="50" relative="1" as="geometry">
            <mxPoint x="472.25" y="620" as="sourcePoint"/>
            <mxPoint x="472.25" y="528" as="targetPoint"/>
          </mxGeometry>
        </mxCell>
        <mxCell id="iLHArTR-ORAOyo2F43qm-25" value="" style="endArrow=none;dashed=1;html=1;strokeWidth=2;entryX=0.5;entryY=1;entryDx=0;entryDy=0;" parent="1" target="iLHArTR-ORAOyo2F43qm-3" edge="1">
          <mxGeometry width="50" height="50" relative="1" as="geometry">
            <mxPoint x="420" y="500" as="sourcePoint"/>
            <mxPoint x="419.5" y="190" as="targetPoint"/>
            <Array as="points"/>
          </mxGeometry>
        </mxCell>
        <mxCell id="iLHArTR-ORAOyo2F43qm-27" value="Team members will be able to merge to respective highest branches only" style="rounded=1;whiteSpace=wrap;html=1;" parent="1" vertex="1">
          <mxGeometry x="94.5" y="160" width="120" height="60" as="geometry"/>
        </mxCell>
        <mxCell id="iLHArTR-ORAOyo2F43qm-28" value="Higher merging will be done as a group during meetings/ with approval from members" style="rounded=1;whiteSpace=wrap;html=1;" parent="1" vertex="1">
          <mxGeometry x="180" y="87.5" width="137.75" height="65" as="geometry"/>
        </mxCell>
        <mxCell id="iLHArTR-ORAOyo2F43qm-29" value="Master Branch is used as deployment branch. and Master-Dev will be the default branch." style="rounded=1;whiteSpace=wrap;html=1;" parent="1" vertex="1">
          <mxGeometry x="600" y="90" width="130" height="60" as="geometry"/>
        </mxCell>
        <mxCell id="iLHArTR-ORAOyo2F43qm-30" value="" style="endArrow=classic;html=1;entryX=0;entryY=0.5;entryDx=0;entryDy=0;exitX=1;exitY=0.5;exitDx=0;exitDy=0;fillColor=#f8cecc;strokeColor=#b85450;" parent="1" source="iLHArTR-ORAOyo2F43qm-28" target="iLHArTR-ORAOyo2F43qm-2" edge="1">
          <mxGeometry width="50" height="50" relative="1" as="geometry">
            <mxPoint x="450" y="215" as="sourcePoint"/>
            <mxPoint x="532.25" y="115" as="targetPoint"/>
          </mxGeometry>
        </mxCell>
        <mxCell id="iLHArTR-ORAOyo2F43qm-31" value="" style="endArrow=classic;html=1;entryX=0;entryY=0.5;entryDx=0;entryDy=0;exitX=1;exitY=0.5;exitDx=0;exitDy=0;fillColor=#f8cecc;strokeColor=#b85450;" parent="1" source="iLHArTR-ORAOyo2F43qm-28" target="iLHArTR-ORAOyo2F43qm-3" edge="1">
          <mxGeometry width="50" height="50" relative="1" as="geometry">
            <mxPoint x="460" y="225" as="sourcePoint"/>
            <mxPoint x="542.25" y="125" as="targetPoint"/>
          </mxGeometry>
        </mxCell>
        <mxCell id="iLHArTR-ORAOyo2F43qm-32" value="" style="endArrow=classic;html=1;entryX=0.5;entryY=0;entryDx=0;entryDy=0;exitX=1;exitY=0.5;exitDx=0;exitDy=0;fillColor=#f8cecc;strokeColor=#b85450;" parent="1" source="iLHArTR-ORAOyo2F43qm-27" target="iLHArTR-ORAOyo2F43qm-4" edge="1">
          <mxGeometry width="50" height="50" relative="1" as="geometry">
            <mxPoint x="470" y="235" as="sourcePoint"/>
            <mxPoint x="552.25" y="135" as="targetPoint"/>
          </mxGeometry>
        </mxCell>
      </root>
    </mxGraphModel>
  </diagram>
</mxfile>
